<svg width="65px" height="32px" viewBox="0 0 65 32" xmlns="http://www.w3.org/2000/svg">   
            <path fill="#1E6BA0" d="M62.2300602,2.744 C61.1516867,1.6464 59.8939759,1.0064 58.5462048,0.5488 C57.1091566,0.1832 55.0878916,0 52.3477108,0 L46.7326506,0 L46.7326506,15.0016 L34.6489157,15.0016 L34.6489157,19.5296 L42.1959639,19.5296 C41.9712048,21.6336 40.9828916,23.5536 39.2310241,25.0632 C37.4791566,26.5728 35.413253,27.3496 33.1672289,27.3496 C30.561747,27.3496 28.0909639,26.2984 25.8449398,24.3312 C23.4195783,22.136 22.2072892,19.3464 22.2072892,15.9616 C22.2072892,12.6688 23.2848795,9.9704 25.4862651,7.7752 C27.6422289,5.5344 30.2923494,4.436 33.5266867,4.436 C37.1196988,4.436 40.1292771,6.0832 42.6000602,9.4216 L45.8790361,6.2656 C43.9924699,4.0704 42.0612651,2.5152 40.0846386,1.5552 C37.9286747,0.5032 35.7272892,0 33.3927711,0 C28.9907831,0 25.2168675,1.5552 22.2080723,4.6648 C19.1084337,7.7752 17.6259639,11.5256 17.6259639,15.9616 C17.6259639,16.5104 17.6259639,17.0136 17.6706024,17.4712 C16.7277108,16.1448 15.47,15.184 13.8528313,14.6352 C15.5600602,13.0808 16.4136747,11.1136 16.4136747,8.8728 C16.4136747,7.6376 16.1889157,6.4032 15.6493373,5.1688 C15.1105422,3.9336 14.4370482,2.9728 13.5834337,2.1496 C12.6851807,1.372 11.6960843,0.8232 10.3490964,0.5032 C9.09060241,0.1832 7.42879518,0 5.27283133,0 L0.556024096,0 L0.556024096,31.6488 L7.74283133,31.6488 C9.89879518,31.6488 11.6960843,31.4664 13.088494,31.0544 C14.4200829,30.6388059 15.625969,29.8832803 16.5922289,28.8592 C18.2093976,27.304 19.1076506,25.3376 19.1977108,23.0512 C19.9369068,24.5150564 20.9080466,25.8439257 22.0718072,26.984 C25.1260241,30.0944 28.765241,31.6032 32.9871084,31.6032 C37.3444578,31.6032 40.8936145,30.048 43.7238554,26.8008 C44.9807831,25.3832 45.8790361,23.828 46.3285542,22.1816 C46.5086747,21.6328 46.6425904,21.084 46.7326506,20.4896 L46.7326506,31.5576 L51.6742169,31.5576 L51.6742169,19.392 L53.9194578,19.392 C57.3339157,19.392 59.9840361,18.5232 62.0053012,16.7848 C64.0257831,15.0472 64.9694578,12.6688 64.9694578,9.6048 C65.0148795,6.9064 64.0712048,4.6192 62.2300602,2.744 L62.2300602,2.744 Z M5.31746988,4.3904 L6.97927711,4.3904 C8.59644578,4.3904 9.76409639,4.7568 10.6177108,5.5344 C11.4713253,6.3112 11.8754217,7.4088 11.8754217,8.9184 C11.8754217,10.428 11.4713253,11.5712 10.6177108,12.3944 C9.76409639,13.172 8.55180723,13.5384 6.75451807,13.5384 L5.31746988,13.5384 L5.31746988,4.3896 L5.31746988,4.3904 Z M12.953012,25.8864 C11.9208434,26.7552 10.3929518,27.1664 8.23698795,27.1664 L5.31746988,27.1664 L5.31746988,17.5632 L7.69819277,17.5632 C10.2590361,17.5632 12.0101205,18.0664 12.9984337,18.9808 C13.986747,19.896 14.5255422,21.0392 14.5255422,22.4568 C14.5709639,23.8288 14.0321687,24.9728 12.9537952,25.8872 L12.953012,25.8864 Z M53.6054217,15.0016 L51.763494,15.0016 L51.763494,4.528 L53.4253012,4.528 C58.1421084,4.528 60.4781928,6.22 60.4781928,9.696 C60.3881325,13.2176 58.0974699,15.0016 53.6054217,15.0016 Z" id="Shape"></path>
</svg>